<svg xmlns="http://www.w3.org/2000/svg"  viewBox="0 0 590.63 614.66"><defs><style>.cls-1{fill:#ffc936;}.cls-2{fill:#f37925;}</style></defs><g id="Layer_2" data-name="Layer 2"><g id="Layer_1-2" data-name="Layer 1"><path class="cls-1" d="M428.9,230.64l24.41,48.45h0l4.2,8.34,14.77,29.34L585.7,541.89a46,46,0,0,1-20.33,61.77h0A46,46,0,0,1,503.5,583.3L397.53,373,91.35,603.2a57,57,0,0,1-59.95,5.36h0A57,57,0,0,1,6.11,532L205.8,135.44,144.47,438.22,428.9,230.64"/><path class="cls-2" d="M332,179,277.51,0l-86,369.1v0L411.8,206.31Zm-49.54-36.79,20.44,65.14,31.78,10.88-85.07,62.86Z"/></g></g></svg>     